<svg width="18" height="17" viewBox="0 0 18 17" fill="none" xmlns="http://www.w3.org/2000/svg">
<path d="M9.2 0.390625C11.3914 0.423828 13.3836 1.28711 14.8777 2.68164L16.073 1.48633C16.5711 0.988281 17.4344 1.35352 17.4344 2.05078V6.5C17.4344 6.96484 17.0691 7.29688 16.6375 7.29688H12.1551C11.4578 7.29688 11.0926 6.4668 11.5906 5.96875L12.9852 4.57422C11.9559 3.61133 10.6277 3.08008 9.2332 3.08008C6.17852 3.04688 3.58867 5.50391 3.62188 8.69141C3.62188 11.7129 6.07891 14.2031 9.2 14.2031C10.5613 14.2031 11.823 13.7383 12.8523 12.8418C13.0184 12.709 13.2508 12.709 13.3836 12.8418L14.7117 14.1699C14.8777 14.3359 14.8777 14.6016 14.7117 14.7676C13.2508 16.0625 11.2918 16.8594 9.2 16.8594C4.65117 16.8594 0.965626 13.1738 0.965626 8.6582C0.932423 4.10938 4.65117 0.390625 9.2 0.390625Z" fill="white"/>
</svg>
