<svg width="20" height="20" viewBox="0 0 20 20" fill="none" xmlns="http://www.w3.org/2000/svg">
<g clip-path="url(#clip0_42_1935)">
<path d="M10 20C4.477 20 0 15.523 0 10C0 4.477 4.477 0 10 0C15.523 0 20 4.477 20 10C20 15.523 15.523 20 10 20ZM10 18C14.4183 18 18 14.4183 18 10C18 5.58172 14.4183 2 10 2C5.58172 2 2 5.58172 2 10C2 14.4183 5.58172 18 10 18ZM9 11.586V6C9 5.44772 9.44771 5 10 5C10.5523 5 11 5.44772 11 6V11.586L13.536 9.05C13.9284 8.67103 14.5521 8.67645 14.9378 9.06218C15.3236 9.44792 15.329 10.0716 14.95 10.464L10.707 14.707C10.5199 14.8952 10.2654 15.001 10 15.001C9.73459 15.001 9.48013 14.8952 9.293 14.707L5.05 10.464C4.67103 10.0716 4.67645 9.44792 5.06218 9.06218C5.44792 8.67645 6.07162 8.67103 6.464 9.05L9 11.586Z" fill="#30BE9F"/>
</g>
<defs>
<clipPath id="clip0_42_1935">
<rect width="20" height="20" fill="white" transform="matrix(0 1 -1 0 20 0)"/>
</clipPath>
</defs>
</svg>
