<svg width="20" height="20" viewBox="0 0 20 20" fill="none" xmlns="http://www.w3.org/2000/svg">
<g clip-path="url(#clip0_42_1925)">
<path d="M10 0C15.523 0 20 4.477 20 10C20 15.523 15.523 20 10 20C4.477 20 0 15.523 0 10C0 4.477 4.477 0 10 0ZM10 2C5.58172 2 2 5.58172 2 10C2 14.4183 5.58172 18 10 18C14.4183 18 18 14.4183 18 10C18 5.58172 14.4183 2 10 2ZM11 8.414V14C11 14.5523 10.5523 15 10 15C9.44772 15 9 14.5523 9 14V8.414L6.464 10.95C6.07162 11.329 5.44792 11.3236 5.06218 10.9378C4.67645 10.5521 4.67103 9.92838 5.05 9.536L9.293 5.293C9.48013 5.10479 9.73459 4.99897 10 4.99897C10.2654 4.99897 10.5199 5.10479 10.707 5.293L14.95 9.536C15.329 9.92838 15.3236 10.5521 14.9378 10.9378C14.5521 11.3236 13.9284 11.329 13.536 10.95L11 8.414Z" fill="#30BE9F"/>
</g>
<defs>
<clipPath id="clip0_42_1925">
<rect width="20" height="20" fill="white" transform="matrix(0 -1 1 0 0 20)"/>
</clipPath>
</defs>
</svg>
